<svg xmlns="http://www.w3.org/2000/svg" width="52.618" height="46.291" viewBox="0 0 52.618 46.291">
  <path id="Icon_awesome-quote-left" data-name="Icon awesome-quote-left" d="M45.873,24.4H37.964V18.068a6.333,6.333,0,0,1,6.327-6.327h.791a2.367,2.367,0,0,0,2.373-2.373V4.623A2.367,2.367,0,0,0,45.082,2.25h-.791A15.814,15.814,0,0,0,28.473,18.068V41.8a4.747,4.747,0,0,0,4.745,4.745H45.873A4.747,4.747,0,0,0,50.618,41.8V29.141A4.747,4.747,0,0,0,45.873,24.4ZM17.4,24.4H9.491V18.068a6.333,6.333,0,0,1,6.327-6.327h.791a2.367,2.367,0,0,0,2.373-2.373V4.623A2.367,2.367,0,0,0,16.609,2.25h-.791A15.814,15.814,0,0,0,0,18.068V41.8a4.747,4.747,0,0,0,4.745,4.745H17.4A4.747,4.747,0,0,0,22.145,41.8V29.141A4.747,4.747,0,0,0,17.4,24.4Z" transform="translate(1 -1.25)" fill="none" stroke="#6abf4b" stroke-width="2"/>
</svg>
